<?xml version="1.0" encoding="UTF-8"?>
<svg width="59px" height="55px" viewBox="0 0 59 55" version="1.1" xmlns="http://www.w3.org/2000/svg" xmlns:xlink="http://www.w3.org/1999/xlink">
    <!-- Generator: Sketch 47.1 (45422) - http://www.bohemiancoding.com/sketch -->
    <title>Combined Shape</title>
    <desc>Created with Sketch.</desc>
    <defs></defs>
    <g id="Symbols" stroke="none" stroke-width="1" fill="none" fill-rule="evenodd">
        <g id="Logo" transform="translate(-203.000000, 0.000000)" fill="#C8A068">
            <path d="M228.8037,21.5954 C224.7817,21.5954 221.5207,24.8564 221.5207,28.8784 L221.5207,44.3124 C221.5207,48.3344 224.7817,51.5954 228.8037,51.5954 C232.8257,51.5954 236.0867,48.3344 236.0867,44.3124 L236.0867,28.8784 C236.0867,24.8564 232.8257,21.5954 228.8037,21.5954 M228.8037,18.5954 C234.4827,18.5954 239.0867,23.1994 239.0867,28.8784 L239.0867,44.3124 C239.0867,49.9914 234.4827,54.5954 228.8037,54.5954 C223.1247,54.5954 218.5207,49.9914 218.5207,44.3124 L218.5207,28.8784 C218.5207,23.1994 223.1247,18.5954 228.8037,18.5954 Z M203,22.6735 L203,19.6735 L206.432,19.6765 C209.615,19.4905 211.538,21.1775 211.538,24.2605 L211.538,54.5525 L208.538,54.5525 L208.538,24.2605 C208.538,22.9545 208.115,22.5835 206.519,22.6735 L203,22.6735 Z M222.2979,15.465 C222.1079,15.275 221.9809,15.022 221.9179,14.768 C221.7909,14.071 222.2979,13.437 222.9949,13.31 L234.9739,11.536 L240.3619,0.697 C240.5519,0.254 240.9949,0 241.5029,0 C242.0099,0 242.4529,0.254 242.6429,0.697 L248.0309,11.599 L260.0099,13.374 C260.2639,13.437 260.5169,13.564 260.7069,13.754 C261.2139,14.261 261.2139,15.022 260.7069,15.529 L252.0239,23.958 L254.0519,35.874 C254.1159,36.191 254.0519,36.445 253.9249,36.698 C253.6079,37.269 252.8479,37.522 252.2139,37.205 L241.06897,31.1081543 C241.231445,29.6578369 241.06897,27.6663818 240.845459,27.4505615 L250.5049,32.915 L248.8019,22.905 L249.9339,21.806 L256.0939,15.826 L246.0369,14.336 L241.4979,5.151 L236.9629,14.274 L235.4139,14.503 L226.8939,15.764 L228.483643,17.4307861 C226.215643,16.9797861 224.610596,17.6740723 224.610596,17.6740723 L222.2979,15.465 Z" id="Combined-Shape"></path>
        </g>
    </g>
</svg>