<?xml version="1.0" encoding="UTF-8"?>
<svg width="51px" height="62px" viewBox="0 0 51 62" version="1.1" xmlns="http://www.w3.org/2000/svg" xmlns:xlink="http://www.w3.org/1999/xlink">
    <!-- Generator: Sketch 48.2 (47327) - http://www.bohemiancoding.com/sketch -->
    <title>noun_1283896_cc</title>
    <desc>Created with Sketch.</desc>
    <defs></defs>
    <g id="Desk_Doctors_FAQ" stroke="none" stroke-width="1" fill="none" fill-rule="evenodd" transform="translate(-338.000000, -977.000000)">
        <g id="noun_1283896_cc" transform="translate(337.500000, 977.000000)" fill="#3591F9" fill-rule="nonzero">
            <g id="Group">
                <path d="M48.063,51.451 C46.669,46.99 42.783,43.648 38.163,42.937 L33,42.142 L33,41.106 C36.365,39.153 38.848,35.847 39.686,31.931 C42.116,31.592 44,29.522 44,27 L44,15.325 C44,11.276 41.521,7.678 37.781,6.22 C36.323,2.479 32.724,0 28.675,0 L26,0 C16.075,0 8,8.075 8,18 L8,27 C8,29.522 9.884,31.592 12.314,31.931 C13.152,35.847 15.635,39.153 19,41.106 L19,42.142 L13.837,42.936 C9.217,43.647 5.331,46.989 3.937,51.45 L0.64,62 L51.36,62 L48.063,51.451 Z M46.154,52.047 L48.64,60 L40.883,60 L39.992,52.876 L38.008,53.124 L38.867,60 L27,60 L27,58.677 L38.023,54.267 L33.789,51.092 L38.244,48.419 L36.775,44.746 L37.859,44.913 C41.73,45.509 44.986,48.309 46.154,52.047 Z M17.52,44.393 L19.366,44.109 L24.099,55.941 L18.066,53.7 L21.79,50.907 L16.245,47.58 L17.52,44.393 Z M32.634,44.109 L34.48,44.393 L35.755,47.58 L30.21,50.907 L33.976,53.732 L27.795,56.204 L32.634,44.109 Z M39.958,29.829 C39.974,29.553 40,29.28 40,29 L40,24.184 C41.161,24.598 42,25.698 42,27 C42,28.317 41.141,29.427 39.958,29.829 Z M26,2 L28.675,2 C32.027,2 34.991,4.136 36.051,7.316 L36.209,7.79 L36.683,7.948 C37.431,8.198 38.115,8.56 38.733,9 L31.737,9 C30.47,7.189 28.373,6 26,6 C23.627,6 21.53,7.189 20.264,9 L12.782,9 C15.665,4.778 20.513,2 26,2 Z M19.295,15 L10.292,15 C10.561,13.591 11.022,12.253 11.635,11 L19.295,11 C19.105,11.634 19,12.305 19,13 C19,13.695 19.105,14.366 19.295,15 Z M26,8 C28.757,8 31,10.243 31,13 C31,15.757 28.757,18 26,18 C23.243,18 21,15.757 21,13 C21,10.243 23.243,8 26,8 Z M10,27 C10,25.698 10.839,24.598 12,24.184 L12,29 C12,29.28 12.026,29.553 12.042,29.829 C10.859,29.427 10,28.317 10,27 Z M14,29 L14,19 L12,19 L12,22.101 C11.257,22.253 10.584,22.583 10,23.025 L10,18 C10,17.662 10.03,17.332 10.051,17 L20.264,17 C21.531,18.811 23.628,20 26,20 C28.372,20 30.47,18.811 31.736,17 L34,17 L34,15 L32.705,15 C32.895,14.366 33,13.695 33,13 C33,12.305 32.895,11.634 32.705,11 L40.67,11 C41.451,12.164 41.913,13.538 41.974,15 L36,15 L36,17 L42,17 L42,23.026 C41.416,22.584 40.743,22.253 40,22.102 L40,19 L38,19 L38,29 C38,35.617 32.617,41 26,41 C19.383,41 14,35.617 14,29 Z M26,43 C27.763,43 29.445,42.659 31,42.061 L31,42.807 L26,55.307 L21,42.807 L21,42.061 C22.555,42.659 24.237,43 26,43 Z M5.846,52.047 C7.014,48.309 10.27,45.508 14.141,44.913 L15.225,44.746 L13.756,48.419 L18.211,51.092 L13.935,54.299 L25,58.41 L25,60 L13.133,60 L13.992,53.124 L12.008,52.876 L11.117,60 L3.36,60 L5.846,52.047 Z" id="Shape"></path>
                <path d="M32.949,33.316 L31.052,32.683 C31.043,32.707 30.163,35 26,35 C21.857,35 20.979,32.764 20.943,32.668 L19.051,33.316 C19.102,33.467 20.344,37 26,37 C31.656,37 32.898,33.467 32.949,33.316 Z" id="Shape"></path>
                <path d="M26,16 C27.654,16 29,14.654 29,13 C29,11.346 27.654,10 26,10 C24.346,10 23,11.346 23,13 C23,14.654 24.346,16 26,16 Z M26,12 C26.551,12 27,12.449 27,13 C27,13.551 26.551,14 26,14 C25.449,14 25,13.551 25,13 C25,12.449 25.449,12 26,12 Z" id="Shape"></path>
                <rect id="Rectangle-path" x="32" y="23" width="2" height="2"></rect>
                <rect id="Rectangle-path" x="18" y="23" width="2" height="2"></rect>
            </g>
        </g>
    </g>
</svg>