<?xml version="1.0" encoding="UTF-8"?>
<svg width="58px" height="60px" viewBox="0 0 58 60" version="1.1" xmlns="http://www.w3.org/2000/svg" xmlns:xlink="http://www.w3.org/1999/xlink">
    <!-- Generator: Sketch 48.2 (47327) - http://www.bohemiancoding.com/sketch -->
    <title>noun_1429565_cc</title>
    <desc>Created with Sketch.</desc>
    <defs></defs>
    <g id="Desk_Doctors_FAQ" stroke="none" stroke-width="1" fill="none" fill-rule="evenodd" transform="translate(-520.000000, -974.000000)">
        <g id="noun_1429565_cc" transform="translate(520.200002, 974.000002)" fill="#57A3FA" fill-rule="nonzero">
            <path d="M49.1999971,0.299999982 L30.1559982,0.299999982 C25.5168066,0.299999982 21.7559987,4.06080786 21.7559987,8.69999948 L21.7559987,16.121999 C20.6673407,16.3089201 19.7789885,17.0972745 19.4639988,18.1559989 C19.4426817,18.2267135 19.4266377,18.2989114 19.4159988,18.3719989 L19.0319989,21.1499987 C18.9186062,21.9631353 18.6818856,22.7542272 18.3299989,23.4959986 L14.5679991,31.4099981 C14.0654509,32.5868586 13.0537876,33.4704073 11.8199993,33.809998 C11.7395461,32.2742032 10.4597505,31.0765476 8.92199947,31.0979981 L2.92199983,31.0979981 C2.16086168,31.0819336 1.42468862,31.3697864 0.876324169,31.8978827 C0.327959714,32.4259791 0.0125987519,33.1507946 0,33.911998 L0,56.8859966 C0.0263077434,58.461977 1.32192731,59.7200424 2.89799983,59.6999964 L8.89799947,59.6999964 C10.4763999,59.7233812 11.7756975,58.4643511 11.8019993,56.8859966 L11.8019993,56.5319966 L13.0559992,57.2819966 C14.6066903,58.2152554 16.3821333,58.7088949 18.1919989,58.7099965 L28.2119983,58.7099965 C31.176699,58.7226586 33.8101849,56.8190799 34.7279979,53.9999968 L39.1019977,40.7099976 C39.7380907,38.7674236 39.4712447,36.6421093 38.3746624,34.9170831 C37.2780802,33.1920569 35.4669083,32.0484555 33.437998,31.7999981 C30.5579982,31.4459981 27.9299983,31.2299981 26.1479984,31.1999981 C26.0864969,30.1907386 26.1857339,29.1781168 26.4419984,28.1999983 C27.5950825,28.7700804 28.863689,29.0677307 30.1499982,29.0699983 L38.0519977,29.0699983 C39.5459976,32.6699981 42.4619975,34.7519979 44.7419973,35.9159979 C45.7010865,36.3995617 46.8577246,36.2523311 47.6650842,35.5439127 C48.4724437,34.8354943 48.7687815,33.7078097 48.4139971,32.6939981 C48.0279657,31.5350924 47.9271147,30.3001819 48.1199971,29.0939983 L49.1999971,29.0939983 C53.8391887,29.0939983 57.5999966,25.3331904 57.5999966,20.6939988 L57.5999966,8.71799948 C57.6047772,6.48706401 56.7218906,4.34586412 55.1460667,2.76666342 C53.5702428,1.18746272 51.4309377,0.29999486 49.1999971,0.299999982 Z M8.83799947,56.6999966 L2.99999982,56.6999966 L2.99999982,34.103998 L8.83799947,34.103998 L8.83799947,56.6999966 Z M33.071998,34.7999979 C34.2108895,34.9400081 35.2271999,35.5827643 35.8418169,36.5517445 C36.4564338,37.5207248 36.6047372,38.7140514 36.2459978,39.8039976 L31.8779981,53.0759968 C31.3614953,54.6493127 29.8919251,55.7121485 28.2359983,55.7099967 L18.2159989,55.7099967 C16.9477452,55.7116087 15.7030736,55.3672495 14.6159991,54.7139967 L11.8199993,53.0339968 L11.8199993,36.8819978 L11.9399993,36.8819978 C14.3168834,36.4681283 16.3284924,34.8912791 17.297999,32.6819981 L20.9999987,24.7859985 C21.4821713,23.7671379 21.8059039,22.6806106 21.9599987,21.5639987 L22.3019987,19.1099989 C23.095309,19.2615921 23.7939839,19.7266544 24.2399986,20.3999988 C24.8879985,21.4439987 24.8759985,23.0519986 24.2399986,25.0499985 C23.2319986,28.0919983 22.9199986,30.5039982 23.3099986,32.2199981 C23.5720508,33.3828347 24.6080183,34.2066161 25.7999985,34.199998 C28.2331136,34.2674637 30.6607286,34.467762 33.071998,34.7999979 Z M54.5999967,20.6579988 C54.5999967,23.6403362 52.1823345,26.0579984 49.1999971,26.0579984 L46.9079972,26.0579984 C46.2340679,26.0576069 45.6426103,26.506722 45.4619973,27.1559984 C44.9306942,28.994521 44.8811063,30.9387818 45.3179973,32.801998 C43.0643434,31.5713119 41.3522551,29.5424873 40.5179976,27.1139984 C40.3211335,26.4880055 39.7402147,26.0626466 39.0839977,26.0639984 L30.1559982,26.0639984 C29.1391477,26.0640987 28.1429318,25.7770887 27.2819984,25.2359985 C27.9899983,22.6739986 27.8279983,20.5139988 26.7899984,18.8339989 C26.2805942,18.0173234 25.5752404,17.3408437 24.7379985,16.865999 L24.7379985,8.71799948 C24.7379985,5.73566201 27.1556607,3.3179998 30.1379982,3.3179998 L49.1999971,3.3179998 C52.1823345,3.3179998 54.5999967,5.73566201 54.5999967,8.71799948 L54.5999967,20.6579988 Z" id="Shape"></path>
            <path d="M47.3999972,9.97199941 L31.9319981,9.97199941 C31.103571,9.97199941 30.4319982,10.6435722 30.4319982,11.4719993 C30.4319982,12.3004264 31.103571,12.9719992 31.9319981,12.9719992 L47.3999972,12.9719992 C48.2284242,12.9719992 48.899997,12.3004264 48.899997,11.4719993 C48.899997,10.6435723 48.2284242,9.97199943 47.3999972,9.97199941 Z" id="Shape"></path>
            <path d="M47.3999972,16.295999 L31.9319981,16.295999 C31.103571,16.2959991 30.4319982,16.9675719 30.4319982,17.7959989 C30.4319982,18.624426 31.103571,19.2959988 31.9319981,19.2959988 L47.3999972,19.2959988 C48.2284243,19.2959988 48.8999971,18.624426 48.8999971,17.7959989 C48.8999971,16.9675719 48.2284243,16.295999 47.3999972,16.295999 Z" id="Shape"></path>
        </g>
    </g>
</svg>